<?xml version="1.0" encoding="UTF-8" standalone="no"?>
<svg
   xmlns:dc="http://purl.org/dc/elements/1.1/"
   xmlns:cc="http://creativecommons.org/ns#"
   xmlns:rdf="http://www.w3.org/1999/02/22-rdf-syntax-ns#"
   xmlns:svg="http://www.w3.org/2000/svg"
   xmlns="http://www.w3.org/2000/svg"
   xmlns:sodipodi="http://sodipodi.sourceforge.net/DTD/sodipodi-0.dtd"
   xmlns:inkscape="http://www.inkscape.org/namespaces/inkscape"
   width="210mm"
   height="297mm"
   viewBox="0 0 210 297"
   version="1.1"
   id="svg8"
   inkscape:version="1.0.2-2 (e86c870879, 2021-01-15)"
   sodipodi:docname="actapp-icon-simple.svg">
  <defs
     id="defs2" />
  <sodipodi:namedview
     id="base"
     pagecolor="#ffffff"
     bordercolor="#666666"
     borderopacity="1.0"
     inkscape:pageopacity="0.0"
     inkscape:pageshadow="2"
     inkscape:zoom="1.979899"
     inkscape:cx="204.45437"
     inkscape:cy="6.8971755"
     inkscape:document-units="mm"
     inkscape:current-layer="layer1"
     inkscape:document-rotation="0"
     showgrid="false"
     inkscape:window-width="1920"
     inkscape:window-height="991"
     inkscape:window-x="-9"
     inkscape:window-y="-9"
     inkscape:window-maximized="1" />
  <metadata
     id="metadata5">
    <rdf:RDF>
      <cc:Work
         rdf:about="">
        <dc:format>image/svg+xml</dc:format>
        <dc:type
           rdf:resource="http://purl.org/dc/dcmitype/StillImage" />
        <dc:title></dc:title>
      </cc:Work>
    </rdf:RDF>
  </metadata>
  <g
     inkscape:label="Layer 1"
     inkscape:groupmode="layer"
     id="layer1">
    <path
       fill="#000000"
       d="M 8.567456,20.103706 C 5.1492426,19.338986 2.5320258,17.123422 1.3252222,13.972875 -0.77143765,8.4990451 2.3323276,2.4595754 8.0394701,0.90792145 c 1.1763106,-0.3196634 3.7074189,-0.3196634 4.8836989,0 3.467979,0.94287135 6.108377,3.59052365 7.077594,7.09700065 0.327147,1.183534 0.327147,3.7077559 0,4.8912899 -0.962895,3.483654 -3.605453,6.14844 -7.011616,7.070622 -1.127196,0.305102 -3.3604378,0.374284 -4.421691,0.136804 z m 4.169614,-0.598454 c 2.013199,-0.511292 3.712192,-1.606681 5.026659,-3.240824 2.696703,-3.352571 2.707798,-8.2421679 0.02777,-11.6015119 C 14.043694,-0.03230875 6.957061,-0.05919575 3.2206024,4.6077161 0.50253598,8.0025141 0.48311238,12.867052 3.1740414,16.23835 c 2.2937641,2.873583 6.0550107,4.158366 9.5644306,3.267067 z M 4.682761,16.716596 C 4.1236346,16.051093 3.3189327,14.240423 3.0142264,12.962312 2.6411042,11.397113 2.704959,8.9632011 3.156348,7.5422231 c 0.3680938,-1.158577 1.2365251,-2.903553 1.6522872,-3.319928 0.3363238,-0.336933 0.9869134,-0.431037 0.9869134,-0.1429 0,0.09482 -0.2022618,0.674916 -0.4490934,1.288914 -0.2469602,0.613963 -0.5810457,1.73414 -0.7422962,2.489277 -0.2500418,1.170191 -0.2830239,1.638714 -0.2247463,3.1727259 0.07338,1.932576 0.3083193,3.045268 1.0229262,4.847066 0.21645,0.545357 0.3932839,1.049505 0.3932839,1.120312 0,0.07077 -0.1729705,0.129016 -0.384253,0.129016 -0.2676163,0 -0.4887055,-0.124276 -0.7286054,-0.409907 z m 10.352266,0.367477 c 0,-0.0237 0.232771,-0.662828 0.517227,-1.421114 0.740601,-1.974193 0.968753,-3.191723 0.964344,-5.146275 -0.0031,-1.8929569 -0.19454,-2.9246489 -0.89118,-4.8327749 -0.689575,-1.888757 -0.671106,-1.777078 -0.293521,-1.777078 0.54747,0 1.000262,0.493853 1.61689,1.763397 0.849837,1.749785 1.14659,2.99681 1.15328,4.8464559 0.0061,1.874771 -0.227522,2.892954 -1.084495,4.710463 -0.72469,1.537127 -1.02724,1.899356 -1.586461,1.899356 -0.21767,0 -0.396,-0.01693 -0.396,-0.04267 z M 8.1192,14.05076 C 6.8701289,13.333514 6.7663499,11.362776 7.93729,10.594399 8.105621,10.483667 9.0143824,10.198037 9.9564382,9.9593051 l 1.7128718,-0.43412 -0.01862,-0.521484 c -0.02472,-0.717448 -0.392024,-0.998779 -1.307071,-0.998779 -0.7626448,0 -1.2806748,0.308827 -1.6373947,0.976464 -0.2411044,0.451321 -0.6040782,0.55003 -1.0195625,0.277334 -0.2858012,-0.187598 -0.3273167,-0.292573 -0.2657542,-0.673189 0.1060576,-0.655277 0.5321511,-1.176592 1.245096,-1.523684 0.8496206,-0.413598 2.7353304,-0.437132 3.5213504,-0.043681 1.030938,0.515762 1.25456,1.159084 1.259273,3.6229309 0.0016,0.904471 0.07399,1.987703 0.160306,2.407227 0.141817,0.688022 0.133486,0.789136 -0.08632,1.032472 -0.372194,0.411906 -0.787929,0.337272 -1.25009,-0.22417 -0.381601,-0.463682 -0.42461,-0.482171 -0.702558,-0.301717 -1.351463,0.876366 -2.5003041,1.041582 -3.4501274,0.496224 z m 2.704501,-1.094848 c 0.564526,-0.292235 0.910453,-0.92997 0.911038,-1.679114 3.39e-4,-0.416204 -0.0552,-0.626831 -0.164335,-0.624732 -0.469347,0.01016 -2.4239029,0.673529 -2.5698911,0.873521 -0.2592869,0.355152 -0.2031768,0.986521 0.1180785,1.329041 0.3438618,0.366563 1.1056426,0.411804 1.7052866,0.10125 z"
       id="path843"
       style="stroke-width:0.895951" />
  </g>
</svg>
